<?xml version="1.0" encoding="UTF-8" standalone="no"?>
<!-- Created with Inkscape (http://www.inkscape.org/) -->

<svg
   width="126.51182mm"
   height="126.50766mm"
   viewBox="0 0 126.51182 126.50766"
   version="1.1"
   id="svg3202"
   xmlns="http://www.w3.org/2000/svg"
   xmlns:svg="http://www.w3.org/2000/svg">
  <defs
     id="defs3199">
    <linearGradient
       id="SVGID_1_"
       gradientUnits="userSpaceOnUse"
       x1="99.2771"
       y1="487.62149"
       x2="99.2771"
       y2="102.8329">
      <stop
         offset="0"
         style="stop-color: #64009E;"
         id="stop319" />
      <stop
         offset="0.1069"
         style="stop-color: #6009A2;"
         id="stop321" />
      <stop
         offset="0.2779"
         style="stop-color: #5520AF;"
         id="stop323" />
      <stop
         offset="0.4918"
         style="stop-color: #4346C3;"
         id="stop325" />
      <stop
         offset="0.7401"
         style="stop-color: #2A7BDE;"
         id="stop327" />
      <stop
         offset="1"
         style="stop-color: #0CBAFF;"
         id="stop329" />
    </linearGradient>
    <linearGradient
       id="SVGID_2_"
       gradientUnits="userSpaceOnUse"
       x1="409.21799"
       y1="487.62149"
       x2="409.21799"
       y2="102.8329">
      <stop
         offset="0"
         style="stop-color: #64009E;"
         id="stop334" />
      <stop
         offset="0.1069"
         style="stop-color: #6009A2;"
         id="stop336" />
      <stop
         offset="0.2779"
         style="stop-color: #5520AF;"
         id="stop338" />
      <stop
         offset="0.4918"
         style="stop-color: #4346C3;"
         id="stop340" />
      <stop
         offset="0.7401"
         style="stop-color: #2A7BDE;"
         id="stop342" />
      <stop
         offset="1"
         style="stop-color: #0CBAFF;"
         id="stop344" />
    </linearGradient>
    <linearGradient
       id="SVGID_3_"
       gradientUnits="userSpaceOnUse"
       x1="254.2505"
       y1="487.62149"
       x2="254.2505"
       y2="102.8329">
      <stop
         offset="0"
         style="stop-color: #64009E;"
         id="stop349" />
      <stop
         offset="0.1069"
         style="stop-color: #6009A2;"
         id="stop351" />
      <stop
         offset="0.2779"
         style="stop-color: #5520AF;"
         id="stop353" />
      <stop
         offset="0.4918"
         style="stop-color: #4346C3;"
         id="stop355" />
      <stop
         offset="0.7401"
         style="stop-color: #2A7BDE;"
         id="stop357" />
      <stop
         offset="1"
         style="stop-color: #0CBAFF;"
         id="stop359" />
    </linearGradient>
    <linearGradient
       id="SVGID_4_"
       gradientUnits="userSpaceOnUse"
       x1="253.795"
       y1="487.62149"
       x2="253.795"
       y2="102.8329">
      <stop
         offset="0"
         style="stop-color: #64009E;"
         id="stop364" />
      <stop
         offset="0.1069"
         style="stop-color: #6009A2;"
         id="stop366" />
      <stop
         offset="0.2779"
         style="stop-color: #5520AF;"
         id="stop368" />
      <stop
         offset="0.4918"
         style="stop-color: #4346C3;"
         id="stop370" />
      <stop
         offset="0.7401"
         style="stop-color: #2A7BDE;"
         id="stop372" />
      <stop
         offset="1"
         style="stop-color: #0CBAFF;"
         id="stop374" />
    </linearGradient>
    <linearGradient
       id="SVGID_5_"
       gradientUnits="userSpaceOnUse"
       x1="254.2496"
       y1="487.62149"
       x2="254.2496"
       y2="102.8329">
      <stop
         offset="0"
         style="stop-color: #64009E;"
         id="stop379" />
      <stop
         offset="0.1069"
         style="stop-color: #6009A2;"
         id="stop381" />
      <stop
         offset="0.2779"
         style="stop-color: #5520AF;"
         id="stop383" />
      <stop
         offset="0.4918"
         style="stop-color: #4346C3;"
         id="stop385" />
      <stop
         offset="0.7401"
         style="stop-color: #2A7BDE;"
         id="stop387" />
      <stop
         offset="1"
         style="stop-color: #0CBAFF;"
         id="stop389" />
    </linearGradient>
  </defs>
  <g
     id="layer1"
     transform="translate(-41.19748,-85.246167)">
    <g
       transform="matrix(0.23860482,0.11433318,-0.11433318,0.23860482,72.858419,58.762339)"
       id="g395">
      <svg
         version="1.1"
         id="svg4171"
         x="179.22974"
         y="156.39215"
         viewBox="0 0 508.5 508.5"
         xml:space="preserve"
         height="216.54053"
         width="216.54053"
         preserveAspectRatio="xMinYMin"
         enable-background="new 0 0 508.5 508.5"
         style="overflow:visible"><linearGradient
           id="linearGradient4103"
           gradientUnits="userSpaceOnUse"
           x1="99.2771"
           y1="487.62149"
           x2="99.2771"
           y2="102.8329"><stop
             offset="0"
             style="stop-color: #64009E;"
             id="stop4091" /><stop
             offset="0.1069"
             style="stop-color: #6009A2;"
             id="stop4093" /><stop
             offset="0.2779"
             style="stop-color: #5520AF;"
             id="stop4095" /><stop
             offset="0.4918"
             style="stop-color: #4346C3;"
             id="stop4097" /><stop
             offset="0.7401"
             style="stop-color: #2A7BDE;"
             id="stop4099" /><stop
             offset="1"
             style="stop-color: #0CBAFF;"
             id="stop4101" /></linearGradient><path
           class="st0"
           d="m 99.3,308.6 c -30,0 -54.3,-24.4 -54.3,-54.3 0,-30 24.4,-54.3 54.3,-54.3 30,0 54.3,24.4 54.3,54.3 0,7.3 -1.4,14.3 -4.1,20.6 l 33.2,33.2 c 10,-15.5 15.8,-34 15.8,-53.8 C 198.5,199.5 154.1,155 99.2,155 44.3,155 0,199.4 0,254.3 c 0,54.8 44.4,99.3 99.3,99.3 18.7,0 36.2,-5.2 51.2,-14.2 l -33.7,-33.7 c -5.5,1.9 -11.4,2.9 -17.5,2.9 z"
           style="fill:url(#SVGID_1_)"
           id="path4105" /><linearGradient
           id="linearGradient4119"
           gradientUnits="userSpaceOnUse"
           x1="409.21799"
           y1="487.62149"
           x2="409.21799"
           y2="102.8329"><stop
             offset="0"
             style="stop-color: #64009E;"
             id="stop4107" /><stop
             offset="0.1069"
             style="stop-color: #6009A2;"
             id="stop4109" /><stop
             offset="0.2779"
             style="stop-color: #5520AF;"
             id="stop4111" /><stop
             offset="0.4918"
             style="stop-color: #4346C3;"
             id="stop4113" /><stop
             offset="0.7401"
             style="stop-color: #2A7BDE;"
             id="stop4115" /><stop
             offset="1"
             style="stop-color: #0CBAFF;"
             id="stop4117" /></linearGradient><path
           class="st1"
           d="m 409.2,155 c -54.8,0 -99.3,44.4 -99.3,99.3 0,19.5 5.6,37.6 15.3,52.9 l 33.3,-33.3 c -2.4,-6.1 -3.6,-12.7 -3.6,-19.6 0,-30 24.4,-54.3 54.3,-54.3 29.9,0 54.3,24.4 54.3,54.3 0,29.9 -24.4,54.3 -54.3,54.3 -6.5,0 -12.8,-1.2 -18.6,-3.3 l -33.5,33.5 c 15.1,9.3 33,14.7 52.1,14.7 54.8,0 99.3,-44.5 99.3,-99.3 0,-54.8 -44.4,-99.2 -99.3,-99.2 z"
           style="fill:url(#SVGID_2_)"
           id="path4121" /><linearGradient
           id="linearGradient4135"
           gradientUnits="userSpaceOnUse"
           x1="254.2505"
           y1="487.62149"
           x2="254.2505"
           y2="102.8329"><stop
             offset="0"
             style="stop-color: #64009E;"
             id="stop4123" /><stop
             offset="0.1069"
             style="stop-color: #6009A2;"
             id="stop4125" /><stop
             offset="0.2779"
             style="stop-color: #5520AF;"
             id="stop4127" /><stop
             offset="0.4918"
             style="stop-color: #4346C3;"
             id="stop4129" /><stop
             offset="0.7401"
             style="stop-color: #2A7BDE;"
             id="stop4131" /><stop
             offset="1"
             style="stop-color: #0CBAFF;"
             id="stop4133" /></linearGradient><path
           class="st2"
           d="m 305.3,390.6 c 2.1,5.8 3.3,12.1 3.3,18.6 0,30 -24.4,54.3 -54.3,54.3 -30,0 -54.3,-24.4 -54.3,-54.3 0,-6.1 1,-12 2.9,-17.5 L 169.2,358 c -9,14.9 -14.2,32.4 -14.2,51.2 0,54.8 44.4,99.3 99.3,99.3 54.8,0 99.3,-44.4 99.3,-99.3 0,-19.1 -5.4,-36.9 -14.7,-52.1 z"
           style="fill:url(#SVGID_3_)"
           id="path4137" /><linearGradient
           id="linearGradient4151"
           gradientUnits="userSpaceOnUse"
           x1="253.795"
           y1="487.62149"
           x2="253.795"
           y2="102.8329"><stop
             offset="0"
             style="stop-color: #64009E;"
             id="stop4139" /><stop
             offset="0.1069"
             style="stop-color: #6009A2;"
             id="stop4141" /><stop
             offset="0.2779"
             style="stop-color: #5520AF;"
             id="stop4143" /><stop
             offset="0.4918"
             style="stop-color: #4346C3;"
             id="stop4145" /><stop
             offset="0.7401"
             style="stop-color: #2A7BDE;"
             id="stop4147" /><stop
             offset="1"
             style="stop-color: #0CBAFF;"
             id="stop4149" /></linearGradient><path
           class="st3"
           d="m 200.4,325.8 33.2,33.2 c 6.4,-2.6 13.3,-4.1 20.6,-4.1 6.9,0 13.5,1.3 19.6,3.6 l 33.3,-33.3 c -15.3,-9.7 -33.5,-15.3 -52.9,-15.3 -19.8,0 -38.3,5.9 -53.8,15.9 z"
           style="fill:url(#SVGID_4_)"
           id="path4153" /><linearGradient
           id="linearGradient4167"
           gradientUnits="userSpaceOnUse"
           x1="254.2496"
           y1="487.62149"
           x2="254.2496"
           y2="102.8329"><stop
             offset="0"
             style="stop-color: #64009E;"
             id="stop4155" /><stop
             offset="0.1069"
             style="stop-color: #6009A2;"
             id="stop4157" /><stop
             offset="0.2779"
             style="stop-color: #5520AF;"
             id="stop4159" /><stop
             offset="0.4918"
             style="stop-color: #4346C3;"
             id="stop4161" /><stop
             offset="0.7401"
             style="stop-color: #2A7BDE;"
             id="stop4163" /><stop
             offset="1"
             style="stop-color: #0CBAFF;"
             id="stop4165" /></linearGradient><circle
           class="st4"
           cx="254.2"
           cy="99.300003"
           r="99.300003"
           style="fill:url(#SVGID_5_)"
           id="circle4169" /></svg>
    </g>
  </g>
</svg>
