<?xml version="1.0" encoding="UTF-8" standalone="no"?>
<svg
   viewBox="73.074084 50.236495 811.19695 478.13918"
   version="1.1"
   id="svg405"
   sodipodi:docname="Transparent Logo.svg"
   width="811.19696"
   height="478.13919"
   inkscape:version="1.2.1 (9c6d41e, 2022-07-14)"
   xmlns:inkscape="http://www.inkscape.org/namespaces/inkscape"
   xmlns:sodipodi="http://sodipodi.sourceforge.net/DTD/sodipodi-0.dtd"
   xmlns="http://www.w3.org/2000/svg"
   xmlns:svg="http://www.w3.org/2000/svg">
  <defs
     id="defs409" />
  <sodipodi:namedview
     id="namedview407"
     pagecolor="#ffffff"
     bordercolor="#000000"
     borderopacity="0.25"
     inkscape:showpageshadow="2"
     inkscape:pageopacity="0.0"
     inkscape:pagecheckerboard="0"
     inkscape:deskcolor="#d1d1d1"
     showgrid="false"
     inkscape:zoom="1.9065643"
     inkscape:cx="457.62946"
     inkscape:cy="241.00944"
     inkscape:window-width="2560"
     inkscape:window-height="1387"
     inkscape:window-x="2560"
     inkscape:window-y="25"
     inkscape:window-maximized="0"
     inkscape:current-layer="svg405" />
  <g
     transform="rotate(25.602521,173.30841,201.51514)"
     id="g395">
    <svg
       version="1.1"
       id="Layer_1"
       x="179.22974"
       y="156.39215"
       viewBox="0 0 508.5 508.5"
       xml:space="preserve"
       height="216.54053"
       width="216.54053"
       preserveAspectRatio="xMinYMin"
       enable-background="new 0 0 508.5 508.5"
       style="overflow:visible"><linearGradient
         id="SVGID_1_"
         gradientUnits="userSpaceOnUse"
         x1="99.2771"
         y1="487.62149"
         x2="99.2771"
         y2="102.8329"><stop
           offset="0"
           style="stop-color: #64009E;"
           id="stop319" /><stop
           offset="0.1069"
           style="stop-color: #6009A2;"
           id="stop321" /><stop
           offset="0.2779"
           style="stop-color: #5520AF;"
           id="stop323" /><stop
           offset="0.4918"
           style="stop-color: #4346C3;"
           id="stop325" /><stop
           offset="0.7401"
           style="stop-color: #2A7BDE;"
           id="stop327" /><stop
           offset="1"
           style="stop-color: #0CBAFF;"
           id="stop329" /></linearGradient><path
         class="st0"
         d="m 99.3,308.6 c -30,0 -54.3,-24.4 -54.3,-54.3 0,-30 24.4,-54.3 54.3,-54.3 30,0 54.3,24.4 54.3,54.3 0,7.3 -1.4,14.3 -4.1,20.6 l 33.2,33.2 c 10,-15.5 15.8,-34 15.8,-53.8 C 198.5,199.5 154.1,155 99.2,155 44.3,155 0,199.4 0,254.3 c 0,54.8 44.4,99.3 99.3,99.3 18.7,0 36.2,-5.2 51.2,-14.2 l -33.7,-33.7 c -5.5,1.9 -11.4,2.9 -17.5,2.9 z"
         style="fill:url(#SVGID_1_)"
         id="path332" /><linearGradient
         id="SVGID_2_"
         gradientUnits="userSpaceOnUse"
         x1="409.21799"
         y1="487.62149"
         x2="409.21799"
         y2="102.8329"><stop
           offset="0"
           style="stop-color: #64009E;"
           id="stop334" /><stop
           offset="0.1069"
           style="stop-color: #6009A2;"
           id="stop336" /><stop
           offset="0.2779"
           style="stop-color: #5520AF;"
           id="stop338" /><stop
           offset="0.4918"
           style="stop-color: #4346C3;"
           id="stop340" /><stop
           offset="0.7401"
           style="stop-color: #2A7BDE;"
           id="stop342" /><stop
           offset="1"
           style="stop-color: #0CBAFF;"
           id="stop344" /></linearGradient><path
         class="st1"
         d="m 409.2,155 c -54.8,0 -99.3,44.4 -99.3,99.3 0,19.5 5.6,37.6 15.3,52.9 l 33.3,-33.3 c -2.4,-6.1 -3.6,-12.7 -3.6,-19.6 0,-30 24.4,-54.3 54.3,-54.3 29.9,0 54.3,24.4 54.3,54.3 0,29.9 -24.4,54.3 -54.3,54.3 -6.5,0 -12.8,-1.2 -18.6,-3.3 l -33.5,33.5 c 15.1,9.3 33,14.7 52.1,14.7 54.8,0 99.3,-44.5 99.3,-99.3 0,-54.8 -44.4,-99.2 -99.3,-99.2 z"
         style="fill:url(#SVGID_2_)"
         id="path347" /><linearGradient
         id="SVGID_3_"
         gradientUnits="userSpaceOnUse"
         x1="254.2505"
         y1="487.62149"
         x2="254.2505"
         y2="102.8329"><stop
           offset="0"
           style="stop-color: #64009E;"
           id="stop349" /><stop
           offset="0.1069"
           style="stop-color: #6009A2;"
           id="stop351" /><stop
           offset="0.2779"
           style="stop-color: #5520AF;"
           id="stop353" /><stop
           offset="0.4918"
           style="stop-color: #4346C3;"
           id="stop355" /><stop
           offset="0.7401"
           style="stop-color: #2A7BDE;"
           id="stop357" /><stop
           offset="1"
           style="stop-color: #0CBAFF;"
           id="stop359" /></linearGradient><path
         class="st2"
         d="m 305.3,390.6 c 2.1,5.8 3.3,12.1 3.3,18.6 0,30 -24.4,54.3 -54.3,54.3 -30,0 -54.3,-24.4 -54.3,-54.3 0,-6.1 1,-12 2.9,-17.5 L 169.2,358 c -9,14.9 -14.2,32.4 -14.2,51.2 0,54.8 44.4,99.3 99.3,99.3 54.8,0 99.3,-44.4 99.3,-99.3 0,-19.1 -5.4,-36.9 -14.7,-52.1 z"
         style="fill:url(#SVGID_3_)"
         id="path362" /><linearGradient
         id="SVGID_4_"
         gradientUnits="userSpaceOnUse"
         x1="253.795"
         y1="487.62149"
         x2="253.795"
         y2="102.8329"><stop
           offset="0"
           style="stop-color: #64009E;"
           id="stop364" /><stop
           offset="0.1069"
           style="stop-color: #6009A2;"
           id="stop366" /><stop
           offset="0.2779"
           style="stop-color: #5520AF;"
           id="stop368" /><stop
           offset="0.4918"
           style="stop-color: #4346C3;"
           id="stop370" /><stop
           offset="0.7401"
           style="stop-color: #2A7BDE;"
           id="stop372" /><stop
           offset="1"
           style="stop-color: #0CBAFF;"
           id="stop374" /></linearGradient><path
         class="st3"
         d="m 200.4,325.8 33.2,33.2 c 6.4,-2.6 13.3,-4.1 20.6,-4.1 6.9,0 13.5,1.3 19.6,3.6 l 33.3,-33.3 c -15.3,-9.7 -33.5,-15.3 -52.9,-15.3 -19.8,0 -38.3,5.9 -53.8,15.9 z"
         style="fill:url(#SVGID_4_)"
         id="path377" /><linearGradient
         id="SVGID_5_"
         gradientUnits="userSpaceOnUse"
         x1="254.2496"
         y1="487.62149"
         x2="254.2496"
         y2="102.8329"><stop
           offset="0"
           style="stop-color: #64009E;"
           id="stop379" /><stop
           offset="0.1069"
           style="stop-color: #6009A2;"
           id="stop381" /><stop
           offset="0.2779"
           style="stop-color: #5520AF;"
           id="stop383" /><stop
           offset="0.4918"
           style="stop-color: #4346C3;"
           id="stop385" /><stop
           offset="0.7401"
           style="stop-color: #2A7BDE;"
           id="stop387" /><stop
           offset="1"
           style="stop-color: #0CBAFF;"
           id="stop389" /></linearGradient><circle
         class="st4"
         cx="254.2"
         cy="99.300003"
         r="99.300003"
         style="fill:url(#SVGID_5_)"
         id="circle392" /></svg>
  </g>
  <g
     id="g403"
     transform="matrix(1.6626219,0,0,1.6626219,-311.72773,-99.659065)">
    <g
       fill="#541594"
       fill-opacity="1"
       id="g1289"
       transform="translate(303.57638,390.80836)">
      <path
         d="m 142.05365,-117.89593 v 0 q -4.09,0 -8.01,-0.69 -3.91,-0.7 -7.26,-2 -3.35,-1.31 -6.05,-3.31 v 0 q -1.04,-0.78 -1.44,-1.78 -0.39,-1 -0.17,-2 0.22,-1 0.87,-1.7 0.65,-0.7 1.61,-0.78 0.96,-0.09 2.09,0.61 v 0 q 3.91,2.78 8.35,4.04 4.44,1.26 10.01,1.26 v 0 q 7.83,0 11.61,-2.91 3.79,-2.92 3.79,-7.7 v 0 q 0,-3.92 -2.74,-6.14 -2.75,-2.21 -9.18,-3.52 v 0 l -9.05,-1.83 q -8.18,-1.74 -12.23,-5.7 -4.04,-3.95 -4.04,-10.57 v 0 q 0,-4.09 1.65,-7.43 1.65,-3.35 4.61,-5.75 2.96,-2.39 7.05,-3.69 4.09,-1.31 9.05,-1.31 v 0 q 5.48,0 10.22,1.52 4.74,1.53 8.57,4.57 v 0 q 0.96,0.78 1.31,1.78 0.34,1 0.08,1.92 -0.26,0.91 -0.91,1.52 -0.65,0.61 -1.65,0.7 -1,0.08 -2.22,-0.7 v 0 q -3.48,-2.61 -7.22,-3.78 -3.74,-1.18 -8.27,-1.18 v 0 q -4.61,0 -7.96,1.39 -3.35,1.4 -5.22,4.05 -1.87,2.65 -1.87,6.13 v 0 q 0,4.18 2.57,6.62 2.56,2.43 8.39,3.56 v 0 l 9.05,1.92 q 8.79,1.82 13.01,5.52 4.22,3.7 4.22,10.05 v 0 q 0,3.83 -1.57,7.05 -1.56,3.22 -4.52,5.52 -2.96,2.31 -7.14,3.53 -4.17,1.21 -9.39,1.21 z m 35.32,-0.34 v 0 q -1.74,0 -2.61,-1 -0.87,-1.01 -0.87,-2.83 v 0 -35.59 q 0,-1.82 0.87,-2.78 0.87,-0.96 2.61,-0.96 v 0 q 1.65,0 2.61,0.96 0.96,0.96 0.96,2.78 v 0 35.59 q 0,1.82 -0.92,2.83 -0.91,1 -2.65,1 z m 0,-52.9 v 0 q -2.18,0 -3.39,-1.18 -1.22,-1.17 -1.22,-3.17 v 0 q 0,-2.09 1.22,-3.18 1.21,-1.09 3.39,-1.09 v 0 q 2.26,0 3.44,1.09 1.17,1.09 1.17,3.18 v 0 q 0,2 -1.17,3.17 -1.18,1.18 -3.44,1.18 z m 34.54,68.9 v 0 q -4.61,0 -9,-1.08 -4.4,-1.09 -7.97,-3.44 v 0 q -1.04,-0.61 -1.34,-1.48 -0.31,-0.87 -0.13,-1.7 0.17,-0.82 0.78,-1.47 0.61,-0.66 1.43,-0.83 0.83,-0.17 1.7,0.26 v 0 q 3.83,2.35 7.31,3.22 3.48,0.87 6.87,0.87 v 0 q 6.18,0 9.36,-3.31 3.17,-3.3 3.17,-9.57 v 0 -9.83 h 0.87 q -1.3,5.05 -5.52,8.01 -4.22,2.95 -9.88,2.95 v 0 q -5.83,0 -10.09,-2.65 -4.26,-2.65 -6.57,-7.44 -2.31,-4.78 -2.31,-11.05 v 0 q 0,-4.7 1.31,-8.57 1.3,-3.87 3.78,-6.61 2.48,-2.74 6.01,-4.26 3.52,-1.53 7.87,-1.53 v 0 q 5.74,0 9.92,2.92 4.18,2.91 5.39,7.87 v 0 l -0.87,1.05 v -8.09 q 0,-1.74 0.92,-2.66 0.91,-0.91 2.56,-0.91 v 0 q 1.74,0 2.61,0.91 0.87,0.92 0.87,2.66 v 0 36.28 q 0,9.65 -4.82,14.57 -4.83,4.91 -14.23,4.91 z m -1.04,-23.14 v 0 q 4.09,0 7.04,-1.87 2.96,-1.87 4.57,-5.35 1.61,-3.48 1.61,-8.18 v 0 q 0,-7.05 -3.57,-11.18 -3.56,-4.13 -9.65,-4.13 v 0 q -4.01,0 -6.96,1.87 -2.96,1.87 -4.57,5.31 -1.61,3.43 -1.61,8.13 v 0 q 0,7.05 3.57,11.23 3.56,4.17 9.57,4.17 z m 35.93,7.31 v 0 q -1.74,0 -2.61,-0.96 -0.87,-0.95 -0.87,-2.69 v 0 -36.28 q 0,-1.74 0.87,-2.66 0.87,-0.91 2.52,-0.91 v 0 q 1.66,0 2.57,0.91 0.91,0.92 0.91,2.66 v 0 7.48 l -0.95,-1.05 q 1.82,-5.04 5.95,-7.61 4.14,-2.57 9.53,-2.57 v 0 q 5.05,0 8.4,1.83 3.35,1.83 5,5.53 1.65,3.69 1.65,9.35 v 0 23.32 q 0,1.74 -0.91,2.69 -0.91,0.96 -2.57,0.96 v 0 q -1.74,0 -2.65,-0.96 -0.91,-0.95 -0.91,-2.69 v 0 -22.89 q 0,-5.91 -2.31,-8.65 -2.31,-2.74 -7.35,-2.74 v 0 q -5.83,0 -9.27,3.61 -3.43,3.61 -3.43,9.61 v 0 21.06 q 0,3.65 -3.57,3.65 z m 64.12,0.17 v 0 q -6.7,0 -11.53,-2.65 -4.83,-2.65 -7.48,-7.53 -2.65,-4.87 -2.65,-11.65 v 0 q 0,-6.62 2.61,-11.53 2.61,-4.92 7.17,-7.7 4.57,-2.79 10.58,-2.79 v 0 q 4.26,0 7.65,1.44 3.4,1.44 5.79,4.13 2.39,2.7 3.65,6.53 1.26,3.83 1.26,8.61 v 0 q 0,1.39 -0.78,2.05 -0.78,0.65 -2.26,0.65 v 0 h -30.28 v -4.61 h 28.63 l -1.4,1.13 q 0,-4.7 -1.39,-7.96 -1.39,-3.27 -4.04,-5.01 -2.66,-1.74 -6.66,-1.74 v 0 q -4.44,0 -7.53,2.05 -3.08,2.04 -4.65,5.65 -1.57,3.61 -1.57,8.4 v 0 0.52 q 0,8.01 3.87,12.18 3.88,4.18 11.01,4.18 v 0 q 2.96,0 5.87,-0.78 2.92,-0.79 5.7,-2.61 v 0 q 1.22,-0.79 2.22,-0.74 1,0.04 1.61,0.61 0.61,0.56 0.83,1.39 0.21,0.82 -0.18,1.78 -0.39,0.96 -1.52,1.65 v 0 q -2.87,2.09 -6.79,3.22 -3.91,1.13 -7.74,1.13 z m 43.33,0 v 0 q -4.96,0 -8.31,-1.78 -3.35,-1.78 -5,-5.22 -1.66,-3.44 -1.66,-8.4 v 0 -22.18 h -5.83 q -1.47,0 -2.26,-0.74 -0.78,-0.74 -0.78,-2.05 v 0 q 0,-1.3 0.78,-2 0.79,-0.69 2.26,-0.69 v 0 h 5.83 v -10.01 q 0,-1.74 0.96,-2.65 0.96,-0.92 2.61,-0.92 v 0 q 1.65,0 2.57,0.92 0.91,0.91 0.91,2.65 v 0 10.01 h 10.96 q 1.48,0 2.27,0.69 0.78,0.7 0.78,2 v 0 q 0,1.31 -0.78,2.05 -0.79,0.74 -2.27,0.74 v 0 h -10.96 v 21.49 q 0,4.96 2.09,7.52 2.09,2.57 6.79,2.57 v 0 q 1.65,0 2.82,-0.35 1.18,-0.35 1.96,-0.35 v 0 q 0.78,-0.08 1.31,0.53 0.52,0.61 0.52,2.08 v 0 q 0,1.05 -0.39,1.92 -0.39,0.87 -1.35,1.22 v 0 q -1.05,0.35 -2.74,0.65 -1.7,0.3 -3.09,0.3 z"
         id="path1287" />
    </g>
  </g>
</svg>
