<?xml version="1.0" encoding="UTF-8"?>
<svg id="Layer_2" data-name="Layer 2" xmlns="http://www.w3.org/2000/svg" viewBox="0 0 1542.2 376.13">
  <defs>
    <style>
      .cls-1, .cls-2 {
        font-size: 23px;
      }

      .cls-1, .cls-2, .cls-3 {
        font-family: Nunito-SemiBold, Nunito;
        font-variation-settings: 'wght' 600;
        font-weight: 600;
      }

      .cls-1, .cls-3 {
        fill: black;
      }
      @media (prefers-color-scheme: dark) {
        .cls-1, .cls-3 {
          fill: white;
        }
      }
      .cls-2 {
        fill: #fff;
      }

      .cls-4 {
        letter-spacing: 0em;
      }

      .cls-5 {
        letter-spacing: 0em;
      }

      .cls-6 {
        letter-spacing: 0em;
      }

      .cls-7 {
        letter-spacing: 0em;
      }

      .cls-8, .cls-9 {
        fill: #0cbaff;
      }

      .cls-10, .cls-11 {
        fill: #541594;
      }

      .cls-12 {
        letter-spacing: 0em;
      }

      .cls-13 {
        letter-spacing: 0em;
      }

      .cls-14 {
        letter-spacing: 0em;
      }

      .cls-3 {
        font-size: 32px;
      }

      .cls-15 {
        letter-spacing: 0em;
      }

      .cls-16 {
        letter-spacing: 0em;
      }

      .cls-17 {
        letter-spacing: 0em;
      }

      .cls-18 {
        letter-spacing: 0em;
      }

      .cls-19 {
        letter-spacing: 0em;
      }

      .cls-20 {
        fill: none;
        stroke: black;
        stroke-dasharray: 0 0 6 6;
        stroke-width: 3px;
      }

      @media (prefers-color-scheme: dark) {
        .cls-20 {
          fill: none;
          stroke: white;
          stroke-dasharray: 0 0 6 6;
          stroke-width: 3px;
        }
      }

      .cls-11, .cls-9 {
        fill-rule: evenodd;
      }

      .cls-21 {
        letter-spacing: 0em;
      }

      .cls-22 {
        letter-spacing: 0em;
      }

      .cls-23 {
        letter-spacing: 0em;
      }

      .cls-24 {
        letter-spacing: 0em;
      }

      .cls-25 {
        letter-spacing: 0em;
      }

      .cls-26 {
        letter-spacing: 0em;
      }

      .cls-27 {
        letter-spacing: 0em;
      }
    </style>
  </defs>
  <g id="Layer_1-2" data-name="Layer 1">
    <g>
      <path class="cls-11" d="m429.06,167.26h20.79c1.33,0,2.51.53,3.36,1.37.83.84,1.33,1.98,1.33,3.32v20.75c0,1.33-.5,2.51-1.33,3.35-.85.84-2.03,1.34-3.36,1.34h-20.79c-1.33,0-2.51-.5-3.36-1.34-.83-.84-1.33-2.02-1.33-3.35v-20.75c0-1.33.5-2.48,1.33-3.32.85-.84,2.03-1.37,3.36-1.37Zm285.57-50.48c-.46,0-.85.17-1.12.44-.27.27-.44.66-.44,1.12v29.26c0,.47-.15.85-.44,1.12-.27.27-.66.44-1.12.44h-29.72c-.48,0-.85-.17-1.14-.44-.27-.27-.42-.65-.42-1.12v-14.07c0-.47-.14-.85-.41-1.12-.27-.27-.7-.44-1.16-.44h-29.23c-.46,0-.85.17-1.12.44-.27.27-.44.66-.44,1.12v14.07c0,.47-.15.85-.42,1.12-.29.27-.66.44-1.14.44h-21.9c-.46,0-.85-.17-1.12-.44-.27-.27-.44-.65-.44-1.12v-14.07c0-.47-.15-.85-.44-1.12-.27-.27-.66-.44-1.12-.44h-29.21c-.48,0-.87.17-1.14.44-.27.27-.42.66-.42,1.12v14.07c0,.47-.17.85-.44,1.12-.27.27-.66.44-1.12.44h-96.21c-.46,0-.85-.17-1.12-.44s-.44-.65-.44-1.12v-14.07c0-.47-.14-.85-.41-1.12-.27-.27-.7-.44-1.16-.44h-108.53c-.46,0-.89.17-1.16.44-.27.27-.41.66-.41,1.12v28.26c0,.47.14.88.41,1.16.27.27.7.41,1.16.41h8.73c.39,0,.81.22,1.1.5.29.27.46.63.46.94v65.93c0,.47.17.85.44,1.12.27.27.66.44,1.12.44h402.62c.41,0,.7-.19.85-.47.15-.27.17-.63-.06-.94l-11.1-16.41c-.41-.55-.73-1.18-.95-1.84-.21-.66-.31-1.36-.31-2.06v-12.5c0-.47.14-.88.41-1.16.27-.28.7-.41,1.16-.41h6.72c.48,0,.85-.17,1.14-.44.27-.27.42-.66.42-1.13v-29.22c0-.47-.15-.86-.42-1.13-.29-.27-.66-.44-1.14-.44h-6.72c-.46,0-.89-.13-1.16-.41-.27-.27-.41-.68-.41-1.16v-11.85c0-.47-.17-.85-.44-1.12-.27-.27-.66-.44-1.12-.44h-35.35c-.46,0-.85-.17-1.14-.44-.27-.27-.42-.65-.42-1.12v-29.26c0-.47-.17-.85-.44-1.12-.27-.27-.66-.44-1.12-.44h-29.29Z"/>
      <path class="cls-11" d="m676.97,238.28c-.4,0-.72.25-.88.56-.16.31-.14.69.09,1l11.82,15.95c.39.54.96.99,1.59,1.28.63.29,1.33.44,2.03.44h74.83c3.43,0,6.66,1,9.35,2.81,2.69,1.81,4.83,4.41,6.08,7.61l4.68,11.42c.16.31.35.53.59.69.23.15.49.25.81.25h39.57c.39,0,.69-.25.84-.56.16-.31.17-.69-.06-1l-26.5-39.32c-.23-.31-.59-.58-.97-.78-.38-.2-.8-.34-1.19-.34h-122.69Z"/>
      <path class="cls-11" d="m381.07,238.78c-.47,0-.88.16-1.16.44-.28.27-.41.65-.41,1.12v38.89c0,.47.13.85.41,1.12.27.27.69.44,1.16.44h14.35c.31,0,.62-.06.88-.22.25-.15.45-.4.53-.72l4.7-11.51c1.33-3.11,3.52-5.71,6.22-7.53,2.7-1.82,5.89-2.86,9.25-2.86h74.88c.7,0,1.41-.18,2.03-.47.62-.29,1.14-.7,1.53-1.24l11.88-15.9c.23-.31.25-.68.09-1-.16-.31-.49-.56-.88-.56h-125.46Z"/>
      <path class="cls-11" d="m591.86,239.8c-15.64,0-28.59,12.71-28.43,28.82,0,.47-.47.91-.94.91h-1.13c-.47,0-.91-.44-.91-.91.16-17.21-14.58-30.54-31.78-28.66-13.14,1.41-23.62,12.08-25.03,25.22-1.72,17.05,11.61,31.6,28.34,31.6,10.95,0,20.49-6.29,25.34-15.52.16-.23.33-.43.57-.56.23-.14.53-.22.84-.22h6.54c.32,0,.61.08.84.22.24.14.41.33.57.56,4.69,9.23,14.24,15.52,25.34,15.52s20.52-6.29,25.37-15.52c.15-.23.33-.43.56-.56.24-.14.53-.22.84-.22h6.54c.32,0,.61.08.85.22.23.14.43.33.59.56,4.69,9.23,14.2,15.52,25.3,15.52,16.73,0,30-14.4,28.28-31.6-1.57-12.98-12.17-23.66-25.31-25.22-17.2-1.88-31.9,11.45-31.74,28.66,0,.47-.48.91-.94.91h-1.06c-.48,0-.94-.44-.94-.91.16-16.27-13.02-28.82-28.5-28.82Z"/>
      <path class="cls-11" d="m702.38,264.28c-9.53,0-17.38,8.27-16.28,18.07.78,7.31,6.72,13.37,14.06,14.31,7.66.93,14.38-3.45,17.03-9.83.15-.31.37-.53.59-.68.22-.15.47-.25.78-.25h22.66c.31,0,.62.11.87.28.26.17.45.42.53.65,2.81,6.37,9.53,10.76,17.19,9.83,7.34-.93,13.28-7,14.06-14.31,1.1-9.79-6.56-18.07-16.25-18.07-6.72,0-12.5,4.08-15,9.83-.16.31-.32.53-.56.68-.24.15-.53.22-.85.22h-22.66c-.31,0-.6-.11-.85-.28-.24-.17-.45-.39-.53-.62-2.35-5.75-8.1-9.83-14.82-9.83Z"/>
      <path class="cls-9" d="m303.55,125.28c-24.68,0-29.53,12.68-42.33,12.68s-14.37-5.87-36.55-5.87c-12.81,0-25.95,6.18-34.86,11.41-.31.16-.37.48-.28.76.09.28.31.51.62.51h151.63c.31,0,.55-.18.66-.44.1-.26.08-.59-.16-.82-4.53-5.07-18.75-18.23-38.73-18.23Z"/>
      <path class="cls-9" d="m141.7,151.32c-.4-.08-.79-.05-1.16.09-.37.14-.72.38-1.03.69l-13.95,13.73c-.31.31-.66.53-1.03.69-.38.15-.78.25-1.16.25H51.57c-.47,0-.86.17-1.13.44-.27.27-.44.66-.44,1.13v62.4c0,.47.17.85.44,1.13.27.27.66.44,1.13.44h301.87c.47,0,.86-.17,1.13-.44.27-.27.44-.66.44-1.13v-77.84c0-.47-.17-.88-.44-1.16-.27-.27-.66-.41-1.13-.41h-211.73Z"/>
      <path class="cls-9" d="m51.07,238.28c-.47,0-.86.16-1.13.44-.27.27-.44.66-.44,1.12v16.27c.24.47.54.85.88,1.12.34.27.73.44,1.13.44h9.22c.48,0,.89.13,1.16.4.28.27.41.69.41,1.16v22.49c0,.47.17.85.44,1.12.28.27.66.44,1.13.44h8.6c.31,0,.65-.06.92-.22.25-.15.45-.41.52-.72l5.76-14.24c1.33-3.12,3.53-5.73,6.23-7.56,2.7-1.83,5.89-2.87,9.26-2.87h71.79c3.45,0,6.69,1,9.39,2.81,2.7,1.81,4.86,4.42,6.1,7.62l5.79,14.05c.16.31.35.55.59.72.24.17.51.25.82.25l17.2.16c.31,0,.62-.06.88-.22.27-.15.45-.41.54-.72l5.79-14.24c1.33-3.12,3.53-5.73,6.23-7.56,2.7-1.83,5.89-2.87,9.26-2.87h71.79c3.45,0,6.69,1,9.39,2.81,2.7,1.81,4.86,4.42,6.1,7.62l5.79,14.05c.16.31.32.55.56.72.24.17.54.25.85.25h8.73c.47,0,.89-.16,1.16-.44.27-.27.41-.66.41-1.12v-22.33c0-.47.16-.88.44-1.16.27-.27.65-.4,1.12-.4h17.09c.47,0,.86-.16,1.13-.44.27-.27.44-.66.44-1.12v-16.27c0-.47-.17-.85-.44-1.12-.27-.27-.66-.44-1.13-.44H51.07Z"/>
      <path class="cls-9" d="m103.87,264.28c-9.7,0-17.36,8.21-16.27,18.01.78,7.46,6.73,13.4,14.08,14.34,7.66.93,14.39-3.42,17.05-9.8.08-.23.27-.48.53-.65.26-.17.57-.28.88-.28h22.68c.31,0,.61.06.85.22.23.15.44.41.59.72,2.5,5.91,8.26,9.95,14.99,9.95,9.54,0,17.24-8.24,16.14-18.04-.78-7.31-6.73-13.25-14.08-14.18-7.51-.93-14.39,3.45-17.05,9.83-.07.23-.27.45-.53.62-.26.17-.6.28-.91.28h-22.68c-.31,0-.61-.06-.85-.25-.24-.19-.41-.5-.41-.96-2.5-5.75-8.29-9.8-15.02-9.8Z"/>
      <path class="cls-9" d="m237.85,264.28c-9.53,0-17.34,8.27-16.25,18.07.78,7.31,6.72,13.37,14.06,14.31,7.66.93,14.38-3.45,17.03-9.83.15-.31.36-.53.59-.68.24-.15.5-.25.81-.25h22.65c.31,0,.62.11.87.28.26.17.45.42.53.65,2.81,6.37,9.53,10.76,17.18,9.83,7.34-.93,13.28-7,14.06-14.31,1.09-9.79-6.57-18.07-16.25-18.07-6.72,0-12.5,4.08-15,9.83-.16.31-.36.53-.6.68-.24.15-.5.22-.81.22h-22.49c-.31,0-.62-.11-.87-.28-.26-.17-.45-.39-.53-.62-2.5-5.75-8.28-9.83-15-9.83Z"/>
      <rect class="cls-8" x="329.5" y="243.78" width="43.5" height="30.5" rx="7.72" ry="7.72"/>
      <path class="cls-11" d="m365,259.53c0-2.35,1.9-4.25,4.25-4.25h27c2.35,0,4.25,1.9,4.25,4.25s-1.9,4.25-4.25,4.25h-27c-2.35,0-4.25-1.9-4.25-4.25Z"/>
      <ellipse class="cls-10" cx="360.75" cy="259.78" rx="9.75" ry="9.5"/>
      <rect class="cls-20" x="1.5" y="67.28" width="865" height="265" rx="50.46" ry="50.46"/>
      <text class="cls-1" transform="translate(292.67 369.78)"><tspan class="cls-17" x="0" y="0">S</tspan><tspan class="cls-14" x="14.26" y="0">co</tspan><tspan class="cls-26" x="38" y="0">p</tspan><tspan x="51.61" y="0">e</tspan><tspan class="cls-4" x="63.96" y="0"> </tspan><tspan x="70.08" y="0">of</tspan><tspan class="cls-4" x="91.06" y="0"> </tspan><tspan class="cls-27" x="97.17" y="0">u</tspan><tspan x="110.28" y="0">n</tspan><tspan class="cls-26" x="123.53" y="0">i</tspan><tspan x="129.14" y="0">t</tspan><tspan class="cls-4" x="137.54" y="0"> </tspan><tspan class="cls-27" x="143.65" y="0">u</tspan><tspan x="156.76" y="0">n</tspan><tspan class="cls-26" x="170.01" y="0">d</tspan><tspan x="183.63" y="0">e</tspan><tspan class="cls-26" x="195.98" y="0">r</tspan><tspan class="cls-5" x="204.58" y="0"> </tspan><tspan class="cls-13" x="210.7" y="0">test</tspan></text>
      <text class="cls-3" transform="translate(302.29 27.28)"><tspan class="cls-24" x="0" y="0">I</tspan><tspan class="cls-15" x="8.61" y="0">nte</tspan><tspan x="55.81" y="0">g</tspan><tspan class="cls-15" x="74.81" y="0">rat</tspan><tspan x="115.52" y="0">i</tspan><tspan class="cls-24" x="123.29" y="0">o</tspan><tspan class="cls-15" x="141.4" y="0">n</tspan><tspan class="cls-24" x="159.8" y="0"> </tspan><tspan class="cls-15" x="168.28" y="0">Te</tspan><tspan x="204.96" y="0">st</tspan></text>
      <text class="cls-2" transform="translate(94.65 205.78)"><tspan class="cls-17" x="0" y="0">S</tspan><tspan class="cls-14" x="14.26" y="0">ho</tspan><tspan class="cls-26" x="40.5" y="0">ppi</tspan><tspan x="73.35" y="0">n</tspan><tspan class="cls-16" x="86.59" y="0">g</tspan><tspan class="cls-4" x="100.23" y="0"> </tspan><tspan class="cls-17" x="106.35" y="0">C</tspan><tspan x="121.85" y="0">a</tspan><tspan class="cls-26" x="134.2" y="0">r</tspan><tspan class="cls-14" x="142.8" y="0">t</tspan><tspan class="cls-4" x="151.2" y="0"> </tspan><tspan class="cls-17" x="157.32" y="0">S</tspan><tspan class="cls-14" x="171.58" y="0">e</tspan><tspan class="cls-26" x="183.93" y="0">rvi</tspan><tspan x="210.12" y="0">ce</tspan></text>
      <text class="cls-2" transform="translate(504.3 205.78)"><tspan x="0" y="0">P</tspan><tspan class="cls-26" x="14.77" y="0">ay</tspan><tspan class="cls-16" x="39.12" y="0">m</tspan><tspan class="cls-26" x="59.02" y="0">e</tspan><tspan x="71.39" y="0">nt</tspan><tspan class="cls-4" x="93.03" y="0"> </tspan><tspan class="cls-17" x="99.15" y="0">S</tspan><tspan class="cls-27" x="113.41" y="0">e</tspan><tspan class="cls-4" x="125.79" y="0">r</tspan><tspan class="cls-26" x="134.41" y="0">vi</tspan><tspan x="152" y="0">ce</tspan></text>
      <path class="cls-11" d="m1363.56,245.28c-.47,0-.88.16-1.15.44-.28.27-.41.65-.41,1.12v38.89c0,.47.13.85.41,1.12.27.27.69.44,1.15.44h14.29c.31,0,.62-.06.87-.22.25-.15.45-.4.53-.72l4.68-11.51c1.32-3.11,3.51-5.71,6.19-7.53,2.69-1.82,5.87-2.86,9.22-2.86h74.58c.7,0,1.41-.18,2.03-.47.61-.29,1.13-.7,1.52-1.24l11.83-15.9c.23-.31.25-.68.09-1-.16-.31-.48-.56-.87-.56h-124.97Z"/>
      <path class="cls-9" d="m1285.55,131.78c-24.68,0-29.53,12.68-42.33,12.68s-14.37-5.87-36.55-5.87c-12.81,0-25.96,6.18-34.86,11.41-.31.16-.37.48-.28.76.08.28.31.51.62.51h151.62c.31,0,.55-.18.66-.44.1-.26.08-.59-.16-.82-4.53-5.07-18.75-18.23-38.73-18.23Z"/>
      <path class="cls-9" d="m1123.7,157.82c-.4-.08-.79-.05-1.16.09-.37.14-.72.38-1.03.69l-13.95,13.73c-.31.31-.66.53-1.03.69-.38.15-.78.25-1.16.25h-71.8c-.47,0-.86.17-1.13.44-.27.27-.44.66-.44,1.13v62.4c0,.47.17.85.44,1.13.27.27.66.44,1.13.44h301.87c.47,0,.86-.17,1.13-.44.27-.27.44-.66.44-1.13v-77.84c0-.47-.17-.88-.44-1.16-.27-.27-.66-.41-1.13-.41h-211.73Z"/>
      <path class="cls-9" d="m1033.07,245.28c-.47,0-.86.16-1.13.44-.27.27-.44.66-.44,1.12v16.27c.24.47.54.85.88,1.12.34.27.73.44,1.13.44h9.22c.48,0,.89.13,1.16.4.28.27.41.69.41,1.16v22.49c0,.47.17.85.44,1.12.28.27.66.44,1.13.44h8.6c.31,0,.65-.06.92-.22.25-.15.45-.41.52-.72l5.76-14.24c1.33-3.12,3.53-5.73,6.23-7.56,2.7-1.83,5.89-2.87,9.26-2.87h71.79c3.45,0,6.69,1,9.39,2.81,2.7,1.81,4.86,4.42,6.1,7.62l5.79,14.05c.16.31.35.55.59.72.24.17.51.25.82.25l17.2.16c.31,0,.62-.06.88-.22.27-.15.45-.41.54-.72l5.79-14.24c1.33-3.12,3.53-5.73,6.23-7.56,2.7-1.83,5.89-2.87,9.26-2.87h71.79c3.45,0,6.69,1,9.39,2.81,2.7,1.81,4.86,4.42,6.1,7.62l5.79,14.05c.16.31.32.55.56.72.24.17.54.25.85.25h8.73c.47,0,.89-.16,1.16-.44.27-.27.41-.66.41-1.12v-22.33c0-.47.16-.88.44-1.16.27-.27.65-.4,1.12-.4h17.09c.47,0,.86-.16,1.13-.44.27-.27.44-.66.44-1.12v-16.27c0-.47-.17-.85-.44-1.12-.27-.27-.66-.44-1.13-.44h-301.87Z"/>
      <path class="cls-9" d="m1085.87,270.78c-9.7,0-17.36,8.21-16.27,18.01.78,7.46,6.73,13.4,14.08,14.34,7.66.93,14.39-3.42,17.05-9.8.08-.23.28-.48.53-.65.26-.17.57-.28.88-.28h22.68c.31,0,.61.06.85.22.23.15.44.41.59.72,2.5,5.91,8.26,9.95,14.99,9.95,9.54,0,17.24-8.24,16.14-18.04-.78-7.31-6.73-13.25-14.08-14.18-7.51-.93-14.39,3.45-17.05,9.83-.08.23-.28.45-.53.62-.26.17-.6.28-.91.28h-22.68c-.31,0-.61-.06-.85-.25-.24-.19-.41-.5-.41-.96-2.5-5.75-8.29-9.8-15.02-9.8Z"/>
      <path class="cls-9" d="m1219.85,271.28c-9.53,0-17.34,8.27-16.25,18.07.78,7.31,6.72,13.37,14.06,14.31,7.66.93,14.38-3.45,17.03-9.83.16-.31.36-.53.59-.68.24-.15.5-.25.81-.25h22.65c.31,0,.62.11.88.28.26.17.45.42.53.65,2.81,6.37,9.53,10.76,17.18,9.83,7.34-.93,13.28-7,14.06-14.31,1.09-9.79-6.56-18.07-16.25-18.07-6.72,0-12.5,4.08-15,9.83-.16.31-.36.53-.59.68-.24.15-.5.22-.81.22h-22.49c-.31,0-.62-.11-.88-.28-.26-.17-.45-.39-.53-.62-2.5-5.75-8.28-9.83-15-9.83Z"/>
      <rect class="cls-8" x="1311.5" y="250.28" width="43.5" height="30.5" rx="7.72" ry="7.72"/>
      <path class="cls-11" d="m1347,266.53c0-2.35,1.9-4.25,4.25-4.25h27c2.35,0,4.25,1.9,4.25,4.25s-1.9,4.25-4.25,4.25h-27c-2.35,0-4.25-1.9-4.25-4.25Z"/>
      <ellipse class="cls-10" cx="1342.75" cy="266.28" rx="9.75" ry="9.5"/>
      <rect class="cls-20" x="998.5" y="67.28" width="399" height="265" rx="50.46" ry="50.46"/>
      <text class="cls-1" transform="translate(1079.08 369.78)"><tspan class="cls-17" x="0" y="0">S</tspan><tspan x="14.26" y="0">co</tspan><tspan class="cls-27" x="38" y="0">p</tspan><tspan x="51.61" y="0">e</tspan><tspan class="cls-4" x="63.96" y="0"> </tspan><tspan class="cls-19" x="70.08" y="0">of</tspan><tspan class="cls-4" x="91.05" y="0"> </tspan><tspan class="cls-7" x="97.17" y="0">u</tspan><tspan x="110.28" y="0">n</tspan><tspan class="cls-27" x="123.53" y="0">i</tspan><tspan x="129.14" y="0">t</tspan><tspan class="cls-4" x="137.54" y="0"> </tspan><tspan class="cls-7" x="143.66" y="0">u</tspan><tspan x="156.76" y="0">n</tspan><tspan class="cls-7" x="170.01" y="0">d</tspan><tspan x="183.63" y="0">e</tspan><tspan class="cls-7" x="195.98" y="0">r</tspan><tspan class="cls-4" x="204.58" y="0"> </tspan><tspan x="210.7" y="0">test</tspan></text>
      <text class="cls-3" transform="translate(1115.83 27.28)"><tspan x="0" y="0">S</tspan><tspan class="cls-18" x="19.9" y="0">er</tspan><tspan x="48.96" y="0">vi</tspan><tspan class="cls-6" x="73.37" y="0">c</tspan><tspan class="cls-18" x="88.38" y="0">e</tspan><tspan class="cls-6" x="105.53" y="0"> </tspan><tspan class="cls-15" x="114.05" y="0">Te</tspan><tspan class="cls-21" x="150.72" y="0">st</tspan></text>
      <text class="cls-2" transform="translate(1076.65 208.28)"><tspan class="cls-17" x="0" y="0">S</tspan><tspan x="14.26" y="0">ho</tspan><tspan class="cls-27" x="40.5" y="0">ppi</tspan><tspan x="73.35" y="0">n</tspan><tspan class="cls-23" x="86.59" y="0">g</tspan><tspan class="cls-4" x="100.23" y="0"> </tspan><tspan class="cls-22" x="106.35" y="0">C</tspan><tspan class="cls-12" x="121.85" y="0">a</tspan><tspan class="cls-7" x="134.2" y="0">r</tspan><tspan x="142.8" y="0">t</tspan><tspan class="cls-4" x="151.2" y="0"> </tspan><tspan class="cls-17" x="157.32" y="0">S</tspan><tspan x="171.58" y="0">e</tspan><tspan class="cls-7" x="183.93" y="0">rvi</tspan><tspan x="210.12" y="0">ce</tspan></text>
      <text class="cls-1" transform="translate(1426.01 210.28)"><tspan x="0" y="0">P</tspan><tspan class="cls-27" x="14.77" y="0">ay</tspan><tspan class="cls-18" x="39.12" y="0">m</tspan><tspan class="cls-7" x="59.02" y="0">e</tspan><tspan x="71.39" y="0">nts</tspan></text>
      <text class="cls-1" transform="translate(1413.89 238.28)"><tspan class="cls-17" x="0" y="0">T</tspan><tspan x="14.01" y="0">es</tspan><tspan class="cls-18" x="37.49" y="0">t</tspan><tspan class="cls-25" x="45.86" y="0"> </tspan><tspan class="cls-18" x="51.98" y="0">D</tspan><tspan x="69.23" y="0">o</tspan><tspan class="cls-7" x="82.22" y="0">ub</tspan><tspan class="cls-23" x="108.95" y="0">l</tspan><tspan x="115.96" y="0">e</tspan></text>
    </g>
  </g>
</svg>
